<mxfile host="Electron" modified="2023-09-22T21:39:40.180Z" agent="Mozilla/5.0 (Windows NT 10.0; Win64; x64) AppleWebKit/537.36 (KHTML, like Gecko) draw.io/21.5.1 Chrome/112.0.5615.204 Electron/24.6.0 Safari/537.36" etag="MRD1brxBVLMNU9HVDOtK" version="21.5.1" type="device">
  <diagram id="GMMU_4wCv8EB_56lTGJv" name="PodApi">
    <mxGraphModel dx="2268" dy="1920" grid="1" gridSize="10" guides="1" tooltips="1" connect="1" arrows="1" fold="1" page="1" pageScale="1" pageWidth="850" pageHeight="1100" background="none" math="0" shadow="0">
      <root>
        <mxCell id="0" />
        <mxCell id="1" parent="0" />
        <mxCell id="dpIC4NpXiSyp9hOxqpC6-1" value="" style="rounded=0;whiteSpace=wrap;html=1;" parent="1" vertex="1">
          <mxGeometry x="-830" y="-1090" width="810" height="1120" as="geometry" />
        </mxCell>
        <mxCell id="dpIC4NpXiSyp9hOxqpC6-2" value="Legend" style="swimlane;whiteSpace=wrap;html=1;gradientColor=none;dashed=1;dashPattern=1 4;fontStyle=0" parent="1" vertex="1">
          <mxGeometry x="-620" y="-90" width="390" height="100" as="geometry" />
        </mxCell>
        <mxCell id="dpIC4NpXiSyp9hOxqpC6-9" value="Class" style="rounded=0;whiteSpace=wrap;html=1;" parent="dpIC4NpXiSyp9hOxqpC6-2" vertex="1">
          <mxGeometry x="160" y="45" width="80" height="30" as="geometry" />
        </mxCell>
        <mxCell id="dpIC4NpXiSyp9hOxqpC6-10" value="Package" style="swimlane;whiteSpace=wrap;html=1;fillColor=#B3B3B3;swimlaneFillColor=#E6E6E6;" parent="dpIC4NpXiSyp9hOxqpC6-2" vertex="1">
          <mxGeometry x="260" y="30" width="120" height="60" as="geometry" />
        </mxCell>
        <mxCell id="OPapY8L2ZR5VlnTKOnnk-138" value="Inheritance" style="text;html=1;strokeColor=none;fillColor=none;align=left;verticalAlign=middle;whiteSpace=wrap;rounded=0;fontStyle=0" parent="dpIC4NpXiSyp9hOxqpC6-2" vertex="1">
          <mxGeometry x="70" y="30" width="80" height="20" as="geometry" />
        </mxCell>
        <mxCell id="OPapY8L2ZR5VlnTKOnnk-139" value="" style="endArrow=block;html=1;endFill=0;strokeWidth=2;fontStyle=0" parent="dpIC4NpXiSyp9hOxqpC6-2" edge="1">
          <mxGeometry width="50" height="50" relative="1" as="geometry">
            <mxPoint x="60" y="40" as="sourcePoint" />
            <mxPoint x="10" y="40" as="targetPoint" />
          </mxGeometry>
        </mxCell>
        <mxCell id="OPapY8L2ZR5VlnTKOnnk-140" value="Association" style="text;html=1;strokeColor=none;fillColor=none;align=left;verticalAlign=middle;whiteSpace=wrap;rounded=0;fontStyle=0" parent="dpIC4NpXiSyp9hOxqpC6-2" vertex="1">
          <mxGeometry x="70" y="50" width="80" height="20" as="geometry" />
        </mxCell>
        <mxCell id="OPapY8L2ZR5VlnTKOnnk-141" value="" style="endArrow=open;html=1;endFill=0;dashed=1;fontStyle=0" parent="dpIC4NpXiSyp9hOxqpC6-2" edge="1">
          <mxGeometry width="50" height="50" relative="1" as="geometry">
            <mxPoint x="60" y="79.70999999999998" as="sourcePoint" />
            <mxPoint x="10" y="79.70999999999998" as="targetPoint" />
          </mxGeometry>
        </mxCell>
        <mxCell id="OPapY8L2ZR5VlnTKOnnk-142" value="Dependency" style="text;html=1;strokeColor=none;fillColor=none;align=left;verticalAlign=middle;whiteSpace=wrap;rounded=0;fontStyle=0" parent="dpIC4NpXiSyp9hOxqpC6-2" vertex="1">
          <mxGeometry x="70" y="70" width="80" height="20" as="geometry" />
        </mxCell>
        <mxCell id="OPapY8L2ZR5VlnTKOnnk-143" value="" style="endArrow=async;html=1;endFill=1;fontStyle=0" parent="dpIC4NpXiSyp9hOxqpC6-2" edge="1">
          <mxGeometry width="50" height="50" relative="1" as="geometry">
            <mxPoint x="60" y="59.70999999999998" as="sourcePoint" />
            <mxPoint x="10" y="59.95999999999998" as="targetPoint" />
          </mxGeometry>
        </mxCell>
        <mxCell id="OPapY8L2ZR5VlnTKOnnk-144" value="*" style="edgeLabel;html=1;align=center;verticalAlign=middle;resizable=0;points=[];fontStyle=0" parent="OPapY8L2ZR5VlnTKOnnk-143" vertex="1" connectable="0">
          <mxGeometry x="0.6272" relative="1" as="geometry">
            <mxPoint x="6" as="offset" />
          </mxGeometry>
        </mxCell>
        <mxCell id="OPapY8L2ZR5VlnTKOnnk-145" value="*&lt;br&gt;" style="edgeLabel;html=1;align=center;verticalAlign=middle;resizable=0;points=[];fontStyle=0" parent="OPapY8L2ZR5VlnTKOnnk-143" vertex="1" connectable="0">
          <mxGeometry x="-0.7057" relative="1" as="geometry">
            <mxPoint x="-3" as="offset" />
          </mxGeometry>
        </mxCell>
        <mxCell id="dpIC4NpXiSyp9hOxqpC6-11" value="v1.5.0" style="text;html=1;strokeColor=none;fillColor=none;align=center;verticalAlign=middle;whiteSpace=wrap;rounded=0;fontStyle=0" parent="1" vertex="1">
          <mxGeometry x="-80" width="60" height="30" as="geometry" />
        </mxCell>
        <mxCell id="dpIC4NpXiSyp9hOxqpC6-12" value="PodApi" style="swimlane;startSize=23;fillColor=#FFB366;gradientColor=none;swimlaneFillColor=#FFE6CC;" parent="1" vertex="1">
          <mxGeometry x="-810" y="-1070" width="770" height="960" as="geometry" />
        </mxCell>
        <mxCell id="dpIC4NpXiSyp9hOxqpC6-13" value="Parameters" style="swimlane;whiteSpace=wrap;html=1;fillColor=#FFFF66;gradientColor=none;swimlaneFillColor=#FFFFCC;" parent="dpIC4NpXiSyp9hOxqpC6-12" vertex="1">
          <mxGeometry x="250" y="40" width="500" height="160" as="geometry" />
        </mxCell>
        <mxCell id="dpIC4NpXiSyp9hOxqpC6-14" value="&lt;span&gt;Params8206HR&lt;/span&gt;" style="rounded=0;whiteSpace=wrap;html=1;fontStyle=0" parent="dpIC4NpXiSyp9hOxqpC6-13" vertex="1">
          <mxGeometry x="15" y="40" width="120" height="40" as="geometry" />
        </mxCell>
        <mxCell id="dpIC4NpXiSyp9hOxqpC6-15" value="Params8401HR" style="rounded=0;whiteSpace=wrap;html=1;fontStyle=0" parent="dpIC4NpXiSyp9hOxqpC6-13" vertex="1">
          <mxGeometry x="100" y="100" width="120" height="40" as="geometry" />
        </mxCell>
        <mxCell id="dpIC4NpXiSyp9hOxqpC6-16" value="Params8229" style="rounded=0;whiteSpace=wrap;html=1;fontStyle=0" parent="dpIC4NpXiSyp9hOxqpC6-13" vertex="1">
          <mxGeometry x="280" y="100" width="120" height="40" as="geometry" />
        </mxCell>
        <mxCell id="dpIC4NpXiSyp9hOxqpC6-17" value="Params8480SC" style="rounded=0;whiteSpace=wrap;html=1;fontStyle=0" parent="dpIC4NpXiSyp9hOxqpC6-13" vertex="1">
          <mxGeometry x="360" y="40" width="120" height="40" as="geometry" />
        </mxCell>
        <mxCell id="dpIC4NpXiSyp9hOxqpC6-18" value="Params" style="rounded=0;whiteSpace=wrap;html=1;fontStyle=0" parent="dpIC4NpXiSyp9hOxqpC6-13" vertex="1">
          <mxGeometry x="190" y="40" width="120" height="40" as="geometry" />
        </mxCell>
        <mxCell id="dpIC4NpXiSyp9hOxqpC6-19" value="" style="endArrow=block;html=1;endFill=0;strokeWidth=2;fontStyle=0" parent="dpIC4NpXiSyp9hOxqpC6-13" source="dpIC4NpXiSyp9hOxqpC6-17" target="dpIC4NpXiSyp9hOxqpC6-18" edge="1">
          <mxGeometry width="50" height="50" relative="1" as="geometry">
            <mxPoint x="-730" y="-584.78" as="sourcePoint" />
            <mxPoint x="-784" y="-618.78" as="targetPoint" />
          </mxGeometry>
        </mxCell>
        <mxCell id="dpIC4NpXiSyp9hOxqpC6-20" value="" style="endArrow=block;html=1;endFill=0;strokeWidth=2;fontStyle=0" parent="dpIC4NpXiSyp9hOxqpC6-13" source="dpIC4NpXiSyp9hOxqpC6-14" target="dpIC4NpXiSyp9hOxqpC6-18" edge="1">
          <mxGeometry width="50" height="50" relative="1" as="geometry">
            <mxPoint x="-130" y="-973.78" as="sourcePoint" />
            <mxPoint x="-160" y="-973.78" as="targetPoint" />
          </mxGeometry>
        </mxCell>
        <mxCell id="dpIC4NpXiSyp9hOxqpC6-21" value="" style="endArrow=block;html=1;endFill=0;strokeWidth=2;fontStyle=0" parent="dpIC4NpXiSyp9hOxqpC6-13" source="dpIC4NpXiSyp9hOxqpC6-15" target="dpIC4NpXiSyp9hOxqpC6-18" edge="1">
          <mxGeometry width="50" height="50" relative="1" as="geometry">
            <mxPoint x="-940" y="-518.78" as="sourcePoint" />
            <mxPoint x="-1020" y="-524.78" as="targetPoint" />
          </mxGeometry>
        </mxCell>
        <mxCell id="dpIC4NpXiSyp9hOxqpC6-22" value="" style="endArrow=block;html=1;endFill=0;strokeWidth=2;fontStyle=0" parent="dpIC4NpXiSyp9hOxqpC6-13" source="dpIC4NpXiSyp9hOxqpC6-16" target="dpIC4NpXiSyp9hOxqpC6-18" edge="1">
          <mxGeometry width="50" height="50" relative="1" as="geometry">
            <mxPoint x="-910" y="-871.78" as="sourcePoint" />
            <mxPoint x="-942" y="-855.78" as="targetPoint" />
          </mxGeometry>
        </mxCell>
        <mxCell id="dpIC4NpXiSyp9hOxqpC6-23" value="Commands" style="swimlane;whiteSpace=wrap;html=1;fillColor=#FF6666;swimlaneLine=1;swimlaneFillColor=#FFCCCC;" parent="dpIC4NpXiSyp9hOxqpC6-12" vertex="1">
          <mxGeometry x="20" y="100" width="160" height="100" as="geometry" />
        </mxCell>
        <mxCell id="dpIC4NpXiSyp9hOxqpC6-24" value="CommandSet" style="rounded=0;whiteSpace=wrap;html=1;fontStyle=0" parent="dpIC4NpXiSyp9hOxqpC6-23" vertex="1">
          <mxGeometry x="20" y="40" width="120" height="40" as="geometry" />
        </mxCell>
        <mxCell id="dpIC4NpXiSyp9hOxqpC6-25" value="Packets" style="swimlane;whiteSpace=wrap;html=1;fillColor=#66FF66;swimlaneFillColor=#CCFFCC;" parent="dpIC4NpXiSyp9hOxqpC6-12" vertex="1">
          <mxGeometry x="20" y="220" width="310" height="340" as="geometry">
            <mxRectangle x="20" y="250" width="90" height="30" as="alternateBounds" />
          </mxGeometry>
        </mxCell>
        <mxCell id="dpIC4NpXiSyp9hOxqpC6-26" value="Packet" style="rounded=0;whiteSpace=wrap;html=1;fontStyle=0" parent="dpIC4NpXiSyp9hOxqpC6-25" vertex="1">
          <mxGeometry x="20" y="94.19" width="120" height="40" as="geometry" />
        </mxCell>
        <mxCell id="dpIC4NpXiSyp9hOxqpC6-27" value="&lt;span&gt;PacketStandard&lt;/span&gt;" style="rounded=0;whiteSpace=wrap;html=1;fontStyle=0" parent="dpIC4NpXiSyp9hOxqpC6-25" vertex="1">
          <mxGeometry x="170" y="40" width="120" height="40" as="geometry" />
        </mxCell>
        <mxCell id="dpIC4NpXiSyp9hOxqpC6-28" value="" style="endArrow=block;html=1;endFill=0;strokeWidth=2;fontStyle=0" parent="dpIC4NpXiSyp9hOxqpC6-25" source="dpIC4NpXiSyp9hOxqpC6-27" target="dpIC4NpXiSyp9hOxqpC6-26" edge="1">
          <mxGeometry width="50" height="50" relative="1" as="geometry">
            <mxPoint x="-411.71000000000004" y="48.83000000000003" as="sourcePoint" />
            <mxPoint x="-461.71000000000004" y="48.83000000000003" as="targetPoint" />
          </mxGeometry>
        </mxCell>
        <mxCell id="dpIC4NpXiSyp9hOxqpC6-29" value="PacketBinary" style="rounded=0;whiteSpace=wrap;html=1;fontStyle=0" parent="dpIC4NpXiSyp9hOxqpC6-25" vertex="1">
          <mxGeometry x="170" y="148.39000000000001" width="120" height="40" as="geometry" />
        </mxCell>
        <mxCell id="dpIC4NpXiSyp9hOxqpC6-30" value="" style="endArrow=block;html=1;endFill=0;strokeWidth=2;fontStyle=0" parent="dpIC4NpXiSyp9hOxqpC6-25" source="dpIC4NpXiSyp9hOxqpC6-29" target="dpIC4NpXiSyp9hOxqpC6-26" edge="1">
          <mxGeometry width="50" height="50" relative="1" as="geometry">
            <mxPoint x="-316.71" y="358.83000000000004" as="sourcePoint" />
            <mxPoint x="-316.71" y="322.83000000000004" as="targetPoint" />
          </mxGeometry>
        </mxCell>
        <mxCell id="dpIC4NpXiSyp9hOxqpC6-31" value="&lt;span&gt;PacketBinary5&lt;/span&gt;" style="rounded=0;whiteSpace=wrap;html=1;fontStyle=0" parent="dpIC4NpXiSyp9hOxqpC6-25" vertex="1">
          <mxGeometry x="99.99999999999997" y="220" width="120" height="40" as="geometry" />
        </mxCell>
        <mxCell id="dpIC4NpXiSyp9hOxqpC6-32" value="" style="endArrow=block;html=1;endFill=0;strokeWidth=2;fontStyle=0" parent="dpIC4NpXiSyp9hOxqpC6-25" source="dpIC4NpXiSyp9hOxqpC6-31" target="dpIC4NpXiSyp9hOxqpC6-26" edge="1">
          <mxGeometry width="50" height="50" relative="1" as="geometry">
            <mxPoint x="-85.70999999999998" y="384.83000000000004" as="sourcePoint" />
            <mxPoint x="-211.70999999999998" y="322.83000000000004" as="targetPoint" />
          </mxGeometry>
        </mxCell>
        <mxCell id="dpIC4NpXiSyp9hOxqpC6-33" value="&lt;span&gt;PacketBinary4&lt;/span&gt;" style="rounded=0;whiteSpace=wrap;html=1;fontStyle=0" parent="dpIC4NpXiSyp9hOxqpC6-25" vertex="1">
          <mxGeometry x="19.99999999999997" y="280" width="120" height="40" as="geometry" />
        </mxCell>
        <mxCell id="dpIC4NpXiSyp9hOxqpC6-34" value="" style="endArrow=block;html=1;endFill=0;strokeWidth=2;fontStyle=0" parent="dpIC4NpXiSyp9hOxqpC6-25" source="dpIC4NpXiSyp9hOxqpC6-33" target="dpIC4NpXiSyp9hOxqpC6-26" edge="1">
          <mxGeometry width="50" height="50" relative="1" as="geometry">
            <mxPoint x="-122.70999999999998" y="358.83000000000004" as="sourcePoint" />
            <mxPoint x="-201.70999999999998" y="322.83000000000004" as="targetPoint" />
          </mxGeometry>
        </mxCell>
        <mxCell id="dpIC4NpXiSyp9hOxqpC6-35" value="Devices" style="swimlane;whiteSpace=wrap;html=1;fillColor=#FF66FF;swimlaneFillColor=#FFCCFF;" parent="dpIC4NpXiSyp9hOxqpC6-12" vertex="1">
          <mxGeometry x="350" y="220" width="400" height="340" as="geometry" />
        </mxCell>
        <mxCell id="dpIC4NpXiSyp9hOxqpC6-36" value="Pod" style="rounded=0;whiteSpace=wrap;html=1;fontStyle=0" parent="dpIC4NpXiSyp9hOxqpC6-35" vertex="1">
          <mxGeometry x="40" y="94.18999999999998" width="120" height="40" as="geometry" />
        </mxCell>
        <mxCell id="dpIC4NpXiSyp9hOxqpC6-37" value="&lt;span&gt;Pod8401HR&lt;/span&gt;" style="rounded=0;whiteSpace=wrap;html=1;fontStyle=0" parent="dpIC4NpXiSyp9hOxqpC6-35" vertex="1">
          <mxGeometry x="40.00000000000001" y="219.99999999999997" width="120" height="40" as="geometry" />
        </mxCell>
        <mxCell id="dpIC4NpXiSyp9hOxqpC6-38" value="" style="endArrow=block;html=1;endFill=0;strokeWidth=2;fontStyle=0" parent="dpIC4NpXiSyp9hOxqpC6-35" source="dpIC4NpXiSyp9hOxqpC6-37" target="dpIC4NpXiSyp9hOxqpC6-36" edge="1">
          <mxGeometry width="50" height="50" relative="1" as="geometry">
            <mxPoint x="81.29" y="-993.3199999999999" as="sourcePoint" />
            <mxPoint x="1.2900000000000027" y="-990.3199999999999" as="targetPoint" />
          </mxGeometry>
        </mxCell>
        <mxCell id="dpIC4NpXiSyp9hOxqpC6-39" value="Pod&lt;span&gt;8206HR&lt;/span&gt;" style="rounded=0;whiteSpace=wrap;html=1;fontStyle=0" parent="dpIC4NpXiSyp9hOxqpC6-35" vertex="1">
          <mxGeometry x="160" y="279.99999999999994" width="120" height="40" as="geometry" />
        </mxCell>
        <mxCell id="dpIC4NpXiSyp9hOxqpC6-40" value="" style="endArrow=block;html=1;endFill=0;strokeWidth=2;fontStyle=0" parent="dpIC4NpXiSyp9hOxqpC6-35" source="dpIC4NpXiSyp9hOxqpC6-39" target="dpIC4NpXiSyp9hOxqpC6-36" edge="1">
          <mxGeometry width="50" height="50" relative="1" as="geometry">
            <mxPoint x="801.2900000000001" y="-1113.32" as="sourcePoint" />
            <mxPoint x="771.2900000000001" y="-1113.32" as="targetPoint" />
          </mxGeometry>
        </mxCell>
        <mxCell id="dpIC4NpXiSyp9hOxqpC6-41" value="Pod8229" style="rounded=0;whiteSpace=wrap;html=1;fontStyle=0" parent="dpIC4NpXiSyp9hOxqpC6-35" vertex="1">
          <mxGeometry x="210" y="219.99999999999997" width="120" height="40" as="geometry" />
        </mxCell>
        <mxCell id="dpIC4NpXiSyp9hOxqpC6-42" value="" style="endArrow=block;html=1;endFill=0;strokeWidth=2;fontStyle=0" parent="dpIC4NpXiSyp9hOxqpC6-35" source="dpIC4NpXiSyp9hOxqpC6-41" target="dpIC4NpXiSyp9hOxqpC6-36" edge="1">
          <mxGeometry width="50" height="50" relative="1" as="geometry">
            <mxPoint x="49.290000000000006" y="-892.3199999999999" as="sourcePoint" />
            <mxPoint x="-8.709999999999997" y="-881.3199999999999" as="targetPoint" />
          </mxGeometry>
        </mxCell>
        <mxCell id="dpIC4NpXiSyp9hOxqpC6-43" value="Pod&lt;span&gt;8480SC&lt;/span&gt;" style="rounded=0;whiteSpace=wrap;html=1;fontStyle=0" parent="dpIC4NpXiSyp9hOxqpC6-35" vertex="1">
          <mxGeometry x="80" y="34.19" width="120" height="40" as="geometry" />
        </mxCell>
        <mxCell id="dpIC4NpXiSyp9hOxqpC6-44" value="" style="endArrow=block;html=1;endFill=0;strokeWidth=2;fontStyle=0" parent="dpIC4NpXiSyp9hOxqpC6-35" source="dpIC4NpXiSyp9hOxqpC6-43" target="dpIC4NpXiSyp9hOxqpC6-36" edge="1">
          <mxGeometry width="50" height="50" relative="1" as="geometry">
            <mxPoint x="70.29" y="-533.3199999999999" as="sourcePoint" />
            <mxPoint x="-72.71" y="-879.3199999999999" as="targetPoint" />
          </mxGeometry>
        </mxCell>
        <mxCell id="dpIC4NpXiSyp9hOxqpC6-45" value="SerialPorts" style="swimlane;whiteSpace=wrap;html=1;fillColor=#B266FF;swimlaneFillColor=#E5CCFF;" parent="dpIC4NpXiSyp9hOxqpC6-35" vertex="1">
          <mxGeometry x="220" y="34.19" width="160" height="155.81" as="geometry" />
        </mxCell>
        <mxCell id="dpIC4NpXiSyp9hOxqpC6-46" value="PortIO" style="rounded=0;whiteSpace=wrap;html=1;fontStyle=0" parent="dpIC4NpXiSyp9hOxqpC6-45" vertex="1">
          <mxGeometry x="20" y="40" width="120" height="40" as="geometry" />
        </mxCell>
        <mxCell id="gT6cIqdTH9_qGM2Y8Gx--1" value="FindPorts" style="rounded=0;whiteSpace=wrap;html=1;fontStyle=0" parent="dpIC4NpXiSyp9hOxqpC6-45" vertex="1">
          <mxGeometry x="20" y="95.80999999999995" width="120" height="40" as="geometry" />
        </mxCell>
        <mxCell id="dpIC4NpXiSyp9hOxqpC6-47" value="" style="endArrow=async;html=1;endFill=1;fontStyle=0" parent="dpIC4NpXiSyp9hOxqpC6-35" source="dpIC4NpXiSyp9hOxqpC6-36" target="dpIC4NpXiSyp9hOxqpC6-45" edge="1">
          <mxGeometry width="50" height="50" relative="1" as="geometry">
            <mxPoint x="-158" y="211.72000000000003" as="sourcePoint" />
            <mxPoint x="-221" y="188.72000000000003" as="targetPoint" />
          </mxGeometry>
        </mxCell>
        <mxCell id="dpIC4NpXiSyp9hOxqpC6-48" value="1" style="edgeLabel;html=1;align=center;verticalAlign=middle;resizable=0;points=[];fontStyle=0" parent="dpIC4NpXiSyp9hOxqpC6-47" vertex="1" connectable="0">
          <mxGeometry x="0.6272" relative="1" as="geometry">
            <mxPoint x="-9" as="offset" />
          </mxGeometry>
        </mxCell>
        <mxCell id="dpIC4NpXiSyp9hOxqpC6-49" value="1" style="edgeLabel;html=1;align=center;verticalAlign=middle;resizable=0;points=[];fontStyle=0" parent="dpIC4NpXiSyp9hOxqpC6-47" vertex="1" connectable="0">
          <mxGeometry x="-0.7057" relative="1" as="geometry">
            <mxPoint as="offset" />
          </mxGeometry>
        </mxCell>
        <mxCell id="dpIC4NpXiSyp9hOxqpC6-50" value="" style="endArrow=async;html=1;endFill=1;fontStyle=0;entryX=1;entryY=0.75;entryDx=0;entryDy=0;" parent="dpIC4NpXiSyp9hOxqpC6-12" source="dpIC4NpXiSyp9hOxqpC6-36" target="dpIC4NpXiSyp9hOxqpC6-23" edge="1">
          <mxGeometry width="50" height="50" relative="1" as="geometry">
            <mxPoint x="1312" y="248.72000000000003" as="sourcePoint" />
            <mxPoint x="1282" y="248.72000000000003" as="targetPoint" />
          </mxGeometry>
        </mxCell>
        <mxCell id="dpIC4NpXiSyp9hOxqpC6-51" value="1" style="edgeLabel;html=1;align=center;verticalAlign=middle;resizable=0;points=[];fontStyle=0" parent="dpIC4NpXiSyp9hOxqpC6-50" vertex="1" connectable="0">
          <mxGeometry x="0.6272" relative="1" as="geometry">
            <mxPoint as="offset" />
          </mxGeometry>
        </mxCell>
        <mxCell id="dpIC4NpXiSyp9hOxqpC6-52" value="1" style="edgeLabel;html=1;align=center;verticalAlign=middle;resizable=0;points=[];fontStyle=0" parent="dpIC4NpXiSyp9hOxqpC6-50" vertex="1" connectable="0">
          <mxGeometry x="-0.7057" relative="1" as="geometry">
            <mxPoint as="offset" />
          </mxGeometry>
        </mxCell>
        <mxCell id="dpIC4NpXiSyp9hOxqpC6-53" value="" style="endArrow=async;html=1;endFill=1;fontStyle=4" parent="dpIC4NpXiSyp9hOxqpC6-12" source="dpIC4NpXiSyp9hOxqpC6-36" target="dpIC4NpXiSyp9hOxqpC6-26" edge="1">
          <mxGeometry width="50" height="50" relative="1" as="geometry">
            <mxPoint x="921" y="254.22000000000003" as="sourcePoint" />
            <mxPoint x="827" y="347.22" as="targetPoint" />
          </mxGeometry>
        </mxCell>
        <mxCell id="dpIC4NpXiSyp9hOxqpC6-54" value="0..*" style="edgeLabel;html=1;align=center;verticalAlign=middle;resizable=0;points=[];fontStyle=0" parent="dpIC4NpXiSyp9hOxqpC6-53" vertex="1" connectable="0">
          <mxGeometry x="0.6272" relative="1" as="geometry">
            <mxPoint as="offset" />
          </mxGeometry>
        </mxCell>
        <mxCell id="dpIC4NpXiSyp9hOxqpC6-55" value="1" style="edgeLabel;html=1;align=center;verticalAlign=middle;resizable=0;points=[];fontStyle=0" parent="dpIC4NpXiSyp9hOxqpC6-53" vertex="1" connectable="0">
          <mxGeometry x="-0.7057" relative="1" as="geometry">
            <mxPoint as="offset" />
          </mxGeometry>
        </mxCell>
        <mxCell id="dpIC4NpXiSyp9hOxqpC6-56" value="" style="endArrow=async;html=1;endFill=1;fontStyle=0" parent="dpIC4NpXiSyp9hOxqpC6-12" source="dpIC4NpXiSyp9hOxqpC6-36" target="dpIC4NpXiSyp9hOxqpC6-27" edge="1">
          <mxGeometry width="50" height="50" relative="1" as="geometry">
            <mxPoint x="83" y="464.22" as="sourcePoint" />
            <mxPoint x="-206" y="671.22" as="targetPoint" />
          </mxGeometry>
        </mxCell>
        <mxCell id="dpIC4NpXiSyp9hOxqpC6-57" value="0..*" style="edgeLabel;html=1;align=center;verticalAlign=middle;resizable=0;points=[];fontStyle=0" parent="dpIC4NpXiSyp9hOxqpC6-56" vertex="1" connectable="0">
          <mxGeometry x="0.6272" relative="1" as="geometry">
            <mxPoint x="5" as="offset" />
          </mxGeometry>
        </mxCell>
        <mxCell id="dpIC4NpXiSyp9hOxqpC6-58" value="1" style="edgeLabel;html=1;align=center;verticalAlign=middle;resizable=0;points=[];fontStyle=0" parent="dpIC4NpXiSyp9hOxqpC6-56" vertex="1" connectable="0">
          <mxGeometry x="-0.7057" relative="1" as="geometry">
            <mxPoint as="offset" />
          </mxGeometry>
        </mxCell>
        <mxCell id="dpIC4NpXiSyp9hOxqpC6-59" value="" style="endArrow=async;html=1;endFill=1;fontStyle=0" parent="dpIC4NpXiSyp9hOxqpC6-12" source="dpIC4NpXiSyp9hOxqpC6-36" target="dpIC4NpXiSyp9hOxqpC6-29" edge="1">
          <mxGeometry width="50" height="50" relative="1" as="geometry">
            <mxPoint x="83" y="464.22" as="sourcePoint" />
            <mxPoint x="-206" y="671.22" as="targetPoint" />
          </mxGeometry>
        </mxCell>
        <mxCell id="dpIC4NpXiSyp9hOxqpC6-60" value="0..*" style="edgeLabel;html=1;align=center;verticalAlign=middle;resizable=0;points=[];fontStyle=0" parent="dpIC4NpXiSyp9hOxqpC6-59" vertex="1" connectable="0">
          <mxGeometry x="0.6272" relative="1" as="geometry">
            <mxPoint x="5" as="offset" />
          </mxGeometry>
        </mxCell>
        <mxCell id="dpIC4NpXiSyp9hOxqpC6-61" value="1" style="edgeLabel;html=1;align=center;verticalAlign=middle;resizable=0;points=[];fontStyle=0" parent="dpIC4NpXiSyp9hOxqpC6-59" vertex="1" connectable="0">
          <mxGeometry x="-0.7057" relative="1" as="geometry">
            <mxPoint as="offset" />
          </mxGeometry>
        </mxCell>
        <mxCell id="dpIC4NpXiSyp9hOxqpC6-62" value="" style="endArrow=async;html=1;endFill=1;fontStyle=0" parent="dpIC4NpXiSyp9hOxqpC6-12" source="dpIC4NpXiSyp9hOxqpC6-39" target="dpIC4NpXiSyp9hOxqpC6-33" edge="1">
          <mxGeometry width="50" height="50" relative="1" as="geometry">
            <mxPoint x="467" y="94.22" as="sourcePoint" />
            <mxPoint x="-523" y="258.22" as="targetPoint" />
          </mxGeometry>
        </mxCell>
        <mxCell id="dpIC4NpXiSyp9hOxqpC6-63" value="0..*" style="edgeLabel;html=1;align=center;verticalAlign=middle;resizable=0;points=[];fontStyle=0" parent="dpIC4NpXiSyp9hOxqpC6-62" vertex="1" connectable="0">
          <mxGeometry x="0.6272" relative="1" as="geometry">
            <mxPoint as="offset" />
          </mxGeometry>
        </mxCell>
        <mxCell id="dpIC4NpXiSyp9hOxqpC6-64" value="1" style="edgeLabel;html=1;align=center;verticalAlign=middle;resizable=0;points=[];fontStyle=0" parent="dpIC4NpXiSyp9hOxqpC6-62" vertex="1" connectable="0">
          <mxGeometry x="-0.7057" relative="1" as="geometry">
            <mxPoint as="offset" />
          </mxGeometry>
        </mxCell>
        <mxCell id="dpIC4NpXiSyp9hOxqpC6-65" value="" style="endArrow=async;html=1;endFill=1;fontStyle=0" parent="dpIC4NpXiSyp9hOxqpC6-12" source="dpIC4NpXiSyp9hOxqpC6-37" target="dpIC4NpXiSyp9hOxqpC6-31" edge="1">
          <mxGeometry width="50" height="50" relative="1" as="geometry">
            <mxPoint x="477" y="245.22000000000003" as="sourcePoint" />
            <mxPoint x="-363" y="489.22" as="targetPoint" />
          </mxGeometry>
        </mxCell>
        <mxCell id="dpIC4NpXiSyp9hOxqpC6-66" value="0..*" style="edgeLabel;html=1;align=center;verticalAlign=middle;resizable=0;points=[];fontStyle=0" parent="dpIC4NpXiSyp9hOxqpC6-65" vertex="1" connectable="0">
          <mxGeometry x="0.6272" relative="1" as="geometry">
            <mxPoint as="offset" />
          </mxGeometry>
        </mxCell>
        <mxCell id="dpIC4NpXiSyp9hOxqpC6-67" value="1" style="edgeLabel;html=1;align=center;verticalAlign=middle;resizable=0;points=[];fontStyle=0" parent="dpIC4NpXiSyp9hOxqpC6-65" vertex="1" connectable="0">
          <mxGeometry x="-0.7057" relative="1" as="geometry">
            <mxPoint as="offset" />
          </mxGeometry>
        </mxCell>
        <mxCell id="dpIC4NpXiSyp9hOxqpC6-68" value="" style="endArrow=async;html=1;endFill=1;fontStyle=0" parent="dpIC4NpXiSyp9hOxqpC6-12" source="dpIC4NpXiSyp9hOxqpC6-26" target="dpIC4NpXiSyp9hOxqpC6-23" edge="1">
          <mxGeometry width="50" height="50" relative="1" as="geometry">
            <mxPoint x="462.28999999999996" y="228.22000000000003" as="sourcePoint" />
            <mxPoint x="87.29000000000002" y="503.22" as="targetPoint" />
          </mxGeometry>
        </mxCell>
        <mxCell id="dpIC4NpXiSyp9hOxqpC6-69" value="0..*" style="edgeLabel;html=1;align=center;verticalAlign=middle;resizable=0;points=[];fontStyle=0" parent="dpIC4NpXiSyp9hOxqpC6-68" vertex="1" connectable="0">
          <mxGeometry x="0.6272" relative="1" as="geometry">
            <mxPoint as="offset" />
          </mxGeometry>
        </mxCell>
        <mxCell id="dpIC4NpXiSyp9hOxqpC6-70" value="1" style="edgeLabel;html=1;align=center;verticalAlign=middle;resizable=0;points=[];fontStyle=0" parent="dpIC4NpXiSyp9hOxqpC6-68" vertex="1" connectable="0">
          <mxGeometry x="-0.7057" relative="1" as="geometry">
            <mxPoint as="offset" />
          </mxGeometry>
        </mxCell>
        <mxCell id="OPapY8L2ZR5VlnTKOnnk-94" value="Stream" style="swimlane;whiteSpace=wrap;html=1;fillColor=#99FFFF;swimlaneLine=1;swimlaneFillColor=#CCFFFF;" parent="dpIC4NpXiSyp9hOxqpC6-12" vertex="1">
          <mxGeometry x="20" y="580" width="560" height="360" as="geometry" />
        </mxCell>
        <mxCell id="OPapY8L2ZR5VlnTKOnnk-95" value="Bucket" style="rounded=0;whiteSpace=wrap;html=1;fontStyle=0" parent="OPapY8L2ZR5VlnTKOnnk-94" vertex="1">
          <mxGeometry x="20" y="220" width="120" height="40" as="geometry" />
        </mxCell>
        <mxCell id="OPapY8L2ZR5VlnTKOnnk-96" value="Hose" style="rounded=0;whiteSpace=wrap;html=1;fontStyle=0" parent="OPapY8L2ZR5VlnTKOnnk-94" vertex="1">
          <mxGeometry x="20" y="140" width="120" height="40" as="geometry" />
        </mxCell>
        <mxCell id="OPapY8L2ZR5VlnTKOnnk-97" value="DrainBucket" style="rounded=0;whiteSpace=wrap;html=1;fontStyle=0" parent="OPapY8L2ZR5VlnTKOnnk-94" vertex="1">
          <mxGeometry x="20" y="300" width="120" height="40" as="geometry" />
        </mxCell>
        <mxCell id="OPapY8L2ZR5VlnTKOnnk-98" value="Valve" style="rounded=0;whiteSpace=wrap;html=1;fontStyle=0" parent="OPapY8L2ZR5VlnTKOnnk-94" vertex="1">
          <mxGeometry x="20" y="60" width="120" height="40" as="geometry" />
        </mxCell>
        <mxCell id="OPapY8L2ZR5VlnTKOnnk-111" value="" style="endArrow=async;html=1;endFill=1;fontStyle=0" parent="OPapY8L2ZR5VlnTKOnnk-94" source="OPapY8L2ZR5VlnTKOnnk-96" target="OPapY8L2ZR5VlnTKOnnk-98" edge="1">
          <mxGeometry width="50" height="50" relative="1" as="geometry">
            <mxPoint x="170" y="150" as="sourcePoint" />
            <mxPoint x="140" y="150" as="targetPoint" />
          </mxGeometry>
        </mxCell>
        <mxCell id="OPapY8L2ZR5VlnTKOnnk-112" value="1" style="edgeLabel;html=1;align=center;verticalAlign=middle;resizable=0;points=[];fontStyle=0" parent="OPapY8L2ZR5VlnTKOnnk-111" vertex="1" connectable="0">
          <mxGeometry x="0.6272" relative="1" as="geometry">
            <mxPoint x="5" as="offset" />
          </mxGeometry>
        </mxCell>
        <mxCell id="OPapY8L2ZR5VlnTKOnnk-113" value="1" style="edgeLabel;html=1;align=center;verticalAlign=middle;resizable=0;points=[];fontStyle=0" parent="OPapY8L2ZR5VlnTKOnnk-111" vertex="1" connectable="0">
          <mxGeometry x="-0.7057" relative="1" as="geometry">
            <mxPoint x="5" y="-4" as="offset" />
          </mxGeometry>
        </mxCell>
        <mxCell id="OPapY8L2ZR5VlnTKOnnk-86" value="Drain" style="swimlane;whiteSpace=wrap;html=1;fillColor=#3399FF;swimlaneLine=1;swimlaneFillColor=#CCE5FF;" parent="OPapY8L2ZR5VlnTKOnnk-94" vertex="1">
          <mxGeometry x="190" y="35" width="350" height="305" as="geometry" />
        </mxCell>
        <mxCell id="OPapY8L2ZR5VlnTKOnnk-87" value="DrainToEDF" style="rounded=0;whiteSpace=wrap;html=1;fontStyle=0" parent="OPapY8L2ZR5VlnTKOnnk-86" vertex="1">
          <mxGeometry x="190" y="200" width="120" height="40" as="geometry" />
        </mxCell>
        <mxCell id="OPapY8L2ZR5VlnTKOnnk-91" value="DrainToTXT" style="rounded=0;whiteSpace=wrap;html=1;fontStyle=0" parent="OPapY8L2ZR5VlnTKOnnk-86" vertex="1">
          <mxGeometry x="190" y="250" width="120" height="40" as="geometry" />
        </mxCell>
        <mxCell id="OPapY8L2ZR5VlnTKOnnk-88" value="DrainToFile" style="rounded=0;whiteSpace=wrap;html=1;fontStyle=0" parent="OPapY8L2ZR5VlnTKOnnk-86" vertex="1">
          <mxGeometry x="20" y="225" width="120" height="40" as="geometry" />
        </mxCell>
        <mxCell id="OPapY8L2ZR5VlnTKOnnk-92" value="" style="endArrow=block;html=1;endFill=0;strokeWidth=2;fontStyle=0" parent="OPapY8L2ZR5VlnTKOnnk-86" source="OPapY8L2ZR5VlnTKOnnk-91" target="OPapY8L2ZR5VlnTKOnnk-88" edge="1">
          <mxGeometry width="50" height="50" relative="1" as="geometry">
            <mxPoint x="515" y="208" as="sourcePoint" />
            <mxPoint x="485" y="212" as="targetPoint" />
          </mxGeometry>
        </mxCell>
        <mxCell id="OPapY8L2ZR5VlnTKOnnk-93" value="" style="endArrow=block;html=1;endFill=0;strokeWidth=2;fontStyle=0" parent="OPapY8L2ZR5VlnTKOnnk-86" source="OPapY8L2ZR5VlnTKOnnk-87" target="OPapY8L2ZR5VlnTKOnnk-88" edge="1">
          <mxGeometry width="50" height="50" relative="1" as="geometry">
            <mxPoint x="180" y="120" as="sourcePoint" />
            <mxPoint x="150" y="120" as="targetPoint" />
          </mxGeometry>
        </mxCell>
        <mxCell id="OPapY8L2ZR5VlnTKOnnk-1" value="PodHandler" style="swimlane;whiteSpace=wrap;html=1;fillColor=#6666FF;swimlaneFillColor=#CCCCFF;" parent="OPapY8L2ZR5VlnTKOnnk-86" vertex="1">
          <mxGeometry x="20" y="40" width="310" height="140" as="geometry" />
        </mxCell>
        <mxCell id="OPapY8L2ZR5VlnTKOnnk-2" value="DrainDeviceHandler" style="rounded=0;whiteSpace=wrap;html=1;fontStyle=0" parent="OPapY8L2ZR5VlnTKOnnk-1" vertex="1">
          <mxGeometry x="15" y="60" width="120" height="40" as="geometry" />
        </mxCell>
        <mxCell id="OPapY8L2ZR5VlnTKOnnk-3" value="Drain8401HR" style="rounded=0;whiteSpace=wrap;html=1;fontStyle=0" parent="OPapY8L2ZR5VlnTKOnnk-1" vertex="1">
          <mxGeometry x="170" y="35" width="120" height="40" as="geometry" />
        </mxCell>
        <mxCell id="OPapY8L2ZR5VlnTKOnnk-4" value="Drain8206HR" style="rounded=0;whiteSpace=wrap;html=1;fontStyle=0" parent="OPapY8L2ZR5VlnTKOnnk-1" vertex="1">
          <mxGeometry x="170" y="85" width="120" height="40" as="geometry" />
        </mxCell>
        <mxCell id="OPapY8L2ZR5VlnTKOnnk-6" value="" style="endArrow=block;html=1;endFill=0;strokeWidth=2;fontStyle=0" parent="OPapY8L2ZR5VlnTKOnnk-1" source="OPapY8L2ZR5VlnTKOnnk-3" target="OPapY8L2ZR5VlnTKOnnk-2" edge="1">
          <mxGeometry width="50" height="50" relative="1" as="geometry">
            <mxPoint x="270" y="140" as="sourcePoint" />
            <mxPoint x="270" y="-6" as="targetPoint" />
          </mxGeometry>
        </mxCell>
        <mxCell id="OPapY8L2ZR5VlnTKOnnk-7" value="" style="endArrow=block;html=1;endFill=0;strokeWidth=2;fontStyle=0" parent="OPapY8L2ZR5VlnTKOnnk-1" source="OPapY8L2ZR5VlnTKOnnk-4" target="OPapY8L2ZR5VlnTKOnnk-2" edge="1">
          <mxGeometry width="50" height="50" relative="1" as="geometry">
            <mxPoint x="235" y="70" as="sourcePoint" />
            <mxPoint x="150" y="70" as="targetPoint" />
          </mxGeometry>
        </mxCell>
        <mxCell id="OPapY8L2ZR5VlnTKOnnk-122" value="" style="endArrow=async;html=1;endFill=1;fontStyle=0" parent="OPapY8L2ZR5VlnTKOnnk-86" source="OPapY8L2ZR5VlnTKOnnk-88" target="OPapY8L2ZR5VlnTKOnnk-1" edge="1">
          <mxGeometry width="50" height="50" relative="1" as="geometry">
            <mxPoint x="45" y="241" as="sourcePoint" />
            <mxPoint x="80" y="175" as="targetPoint" />
          </mxGeometry>
        </mxCell>
        <mxCell id="OPapY8L2ZR5VlnTKOnnk-123" value="1" style="edgeLabel;html=1;align=center;verticalAlign=middle;resizable=0;points=[];fontStyle=0" parent="OPapY8L2ZR5VlnTKOnnk-122" vertex="1" connectable="0">
          <mxGeometry x="0.6272" relative="1" as="geometry">
            <mxPoint x="-4" y="8" as="offset" />
          </mxGeometry>
        </mxCell>
        <mxCell id="OPapY8L2ZR5VlnTKOnnk-124" value="1" style="edgeLabel;html=1;align=center;verticalAlign=middle;resizable=0;points=[];fontStyle=0" parent="OPapY8L2ZR5VlnTKOnnk-122" vertex="1" connectable="0">
          <mxGeometry x="-0.7057" relative="1" as="geometry">
            <mxPoint y="-4" as="offset" />
          </mxGeometry>
        </mxCell>
        <mxCell id="OPapY8L2ZR5VlnTKOnnk-102" value="" style="endArrow=async;html=1;endFill=1;fontStyle=0;exitX=1;exitY=0.5;exitDx=0;exitDy=0;" parent="OPapY8L2ZR5VlnTKOnnk-94" source="OPapY8L2ZR5VlnTKOnnk-97" edge="1">
          <mxGeometry width="50" height="50" relative="1" as="geometry">
            <mxPoint x="80" y="70" as="sourcePoint" />
            <mxPoint x="190" y="320" as="targetPoint" />
          </mxGeometry>
        </mxCell>
        <mxCell id="OPapY8L2ZR5VlnTKOnnk-103" value="1" style="edgeLabel;html=1;align=center;verticalAlign=middle;resizable=0;points=[];fontStyle=0" parent="OPapY8L2ZR5VlnTKOnnk-102" vertex="1" connectable="0">
          <mxGeometry x="0.6272" relative="1" as="geometry">
            <mxPoint x="-11" as="offset" />
          </mxGeometry>
        </mxCell>
        <mxCell id="OPapY8L2ZR5VlnTKOnnk-104" value="1" style="edgeLabel;html=1;align=center;verticalAlign=middle;resizable=0;points=[];fontStyle=0" parent="OPapY8L2ZR5VlnTKOnnk-102" vertex="1" connectable="0">
          <mxGeometry x="-0.7057" relative="1" as="geometry">
            <mxPoint as="offset" />
          </mxGeometry>
        </mxCell>
        <mxCell id="OPapY8L2ZR5VlnTKOnnk-119" value="" style="endArrow=async;html=1;endFill=1;fontStyle=0" parent="OPapY8L2ZR5VlnTKOnnk-94" source="OPapY8L2ZR5VlnTKOnnk-2" target="OPapY8L2ZR5VlnTKOnnk-95" edge="1">
          <mxGeometry width="50" height="50" relative="1" as="geometry">
            <mxPoint x="132" y="310" as="sourcePoint" />
            <mxPoint x="170" y="292" as="targetPoint" />
          </mxGeometry>
        </mxCell>
        <mxCell id="OPapY8L2ZR5VlnTKOnnk-120" value="1" style="edgeLabel;html=1;align=center;verticalAlign=middle;resizable=0;points=[];fontStyle=0" parent="OPapY8L2ZR5VlnTKOnnk-119" vertex="1" connectable="0">
          <mxGeometry x="0.6272" relative="1" as="geometry">
            <mxPoint as="offset" />
          </mxGeometry>
        </mxCell>
        <mxCell id="OPapY8L2ZR5VlnTKOnnk-121" value="1" style="edgeLabel;html=1;align=center;verticalAlign=middle;resizable=0;points=[];fontStyle=0" parent="OPapY8L2ZR5VlnTKOnnk-119" vertex="1" connectable="0">
          <mxGeometry x="-0.7057" relative="1" as="geometry">
            <mxPoint as="offset" />
          </mxGeometry>
        </mxCell>
        <mxCell id="OPapY8L2ZR5VlnTKOnnk-126" value="" style="endArrow=async;html=1;endFill=1;fontStyle=0" parent="OPapY8L2ZR5VlnTKOnnk-94" source="OPapY8L2ZR5VlnTKOnnk-88" target="OPapY8L2ZR5VlnTKOnnk-95" edge="1">
          <mxGeometry width="50" height="50" relative="1" as="geometry">
            <mxPoint x="247" y="185" as="sourcePoint" />
            <mxPoint x="138" y="230" as="targetPoint" />
          </mxGeometry>
        </mxCell>
        <mxCell id="OPapY8L2ZR5VlnTKOnnk-127" value="1" style="edgeLabel;html=1;align=center;verticalAlign=middle;resizable=0;points=[];fontStyle=0" parent="OPapY8L2ZR5VlnTKOnnk-126" vertex="1" connectable="0">
          <mxGeometry x="0.6272" relative="1" as="geometry">
            <mxPoint as="offset" />
          </mxGeometry>
        </mxCell>
        <mxCell id="OPapY8L2ZR5VlnTKOnnk-128" value="1" style="edgeLabel;html=1;align=center;verticalAlign=middle;resizable=0;points=[];fontStyle=0" parent="OPapY8L2ZR5VlnTKOnnk-126" vertex="1" connectable="0">
          <mxGeometry x="-0.7057" relative="1" as="geometry">
            <mxPoint as="offset" />
          </mxGeometry>
        </mxCell>
        <mxCell id="OPapY8L2ZR5VlnTKOnnk-132" value="" style="endArrow=async;html=1;endFill=1;fontStyle=0;" parent="OPapY8L2ZR5VlnTKOnnk-94" source="OPapY8L2ZR5VlnTKOnnk-95" target="OPapY8L2ZR5VlnTKOnnk-96" edge="1">
          <mxGeometry width="50" height="50" relative="1" as="geometry">
            <mxPoint x="90" y="150" as="sourcePoint" />
            <mxPoint x="90" y="110" as="targetPoint" />
          </mxGeometry>
        </mxCell>
        <mxCell id="OPapY8L2ZR5VlnTKOnnk-133" value="1" style="edgeLabel;html=1;align=center;verticalAlign=middle;resizable=0;points=[];fontStyle=0" parent="OPapY8L2ZR5VlnTKOnnk-132" vertex="1" connectable="0">
          <mxGeometry x="0.6272" relative="1" as="geometry">
            <mxPoint x="5" as="offset" />
          </mxGeometry>
        </mxCell>
        <mxCell id="OPapY8L2ZR5VlnTKOnnk-134" value="1" style="edgeLabel;html=1;align=center;verticalAlign=middle;resizable=0;points=[];fontStyle=0" parent="OPapY8L2ZR5VlnTKOnnk-132" vertex="1" connectable="0">
          <mxGeometry x="-0.7057" relative="1" as="geometry">
            <mxPoint x="5" y="-4" as="offset" />
          </mxGeometry>
        </mxCell>
        <mxCell id="OPapY8L2ZR5VlnTKOnnk-135" value="" style="endArrow=open;html=1;endFill=0;dashed=1;fontStyle=0;entryX=0.5;entryY=1;entryDx=0;entryDy=0;" parent="OPapY8L2ZR5VlnTKOnnk-94" source="OPapY8L2ZR5VlnTKOnnk-97" target="OPapY8L2ZR5VlnTKOnnk-95" edge="1">
          <mxGeometry width="50" height="50" relative="1" as="geometry">
            <mxPoint x="113" y="227.5" as="sourcePoint" />
            <mxPoint x="110" y="147.5" as="targetPoint" />
          </mxGeometry>
        </mxCell>
        <mxCell id="OPapY8L2ZR5VlnTKOnnk-108" value="" style="endArrow=async;html=1;endFill=1;fontStyle=0;exitX=0.75;exitY=0;exitDx=0;exitDy=0;entryX=0;entryY=1;entryDx=0;entryDy=0;" parent="dpIC4NpXiSyp9hOxqpC6-12" source="OPapY8L2ZR5VlnTKOnnk-98" target="dpIC4NpXiSyp9hOxqpC6-35" edge="1">
          <mxGeometry width="50" height="50" relative="1" as="geometry">
            <mxPoint x="180" y="620" as="sourcePoint" />
            <mxPoint x="360" y="500" as="targetPoint" />
          </mxGeometry>
        </mxCell>
        <mxCell id="OPapY8L2ZR5VlnTKOnnk-109" value="1" style="edgeLabel;html=1;align=center;verticalAlign=middle;resizable=0;points=[];fontStyle=0" parent="OPapY8L2ZR5VlnTKOnnk-108" vertex="1" connectable="0">
          <mxGeometry x="0.6272" relative="1" as="geometry">
            <mxPoint x="7" y="-4" as="offset" />
          </mxGeometry>
        </mxCell>
        <mxCell id="OPapY8L2ZR5VlnTKOnnk-110" value="1" style="edgeLabel;html=1;align=center;verticalAlign=middle;resizable=0;points=[];fontStyle=0" parent="OPapY8L2ZR5VlnTKOnnk-108" vertex="1" connectable="0">
          <mxGeometry x="-0.7057" relative="1" as="geometry">
            <mxPoint as="offset" />
          </mxGeometry>
        </mxCell>
        <mxCell id="OPapY8L2ZR5VlnTKOnnk-130" value="" style="endArrow=open;html=1;endFill=0;dashed=1;fontStyle=0;entryX=0.25;entryY=1;entryDx=0;entryDy=0;" parent="dpIC4NpXiSyp9hOxqpC6-12" source="OPapY8L2ZR5VlnTKOnnk-98" target="dpIC4NpXiSyp9hOxqpC6-25" edge="1">
          <mxGeometry width="50" height="50" relative="1" as="geometry">
            <mxPoint x="260" y="1075" as="sourcePoint" />
            <mxPoint x="210" y="1075" as="targetPoint" />
          </mxGeometry>
        </mxCell>
      </root>
    </mxGraphModel>
  </diagram>
</mxfile>
